<svg version="1.0" xmlns="http://www.w3.org/2000/svg" width="6700.000000ptpx" height="6550.000000ptpx" viewBox="0 0 6700.000000 6550.000000" preserveAspectRatio="xMidYMid meet" transform="rotate(0) scale(1, 1)">

<g transform="translate(0.000000,6550.000000) scale(0.100000,-0.100000)" fill="#d7cbbc" stroke="none">
<path d="M4980 61091 l0 -1059 158 -6 c227 -10 407 -24 572 -47 1131 -156&#10;1849 -708 2164 -1664 92 -276 145 -558 183 -965 24 -260 26 -1766 18 -11705&#10;l-8 -8630 -181 -69 c-1585 -602 -2980 -1452 -3847 -2344 -1047 -1076 -1401&#10;-2201 -1042 -3316 391 -1216 1652 -2224 3683 -2944 1705 -605 3936 -980 6300&#10;-1061 925 -32 1825 -20 2610 34 350 25 1082 99 1178 120 l22 5 0 -6535 0&#10;-6535 -35 0 c-19 0 -158 7 -308 15 -599 32 -1174 50 -1954 61 l-483 7 0 751&#10;c0 413 -5 2072 -10 3686 -5 1614 -12 4023 -16 5352 l-7 2418 -534 0 c-1226 0&#10;-2356 80 -3533 251 -587 86 -1328 223 -1774 329 -44 11 -82 18 -84 15 -2 -2 2&#10;-2788 8 -6192 7 -3403 9 -6260 6 -6348 -30 -722 -168 -1204 -457 -1595 -73&#10;-100 -233 -267 -338 -353 -374 -307 -953 -551 -1702 -716 -141 -31 -563 -111&#10;-585 -111 -2 0 -4 -722 -4 -1604 l0 -1605 98 58 c1189 705 3170 1275 5647&#10;1625 1227 173 2454 274 3550 292 496 9 880 -9 1545 -71 258 -25 857 -89 933&#10;-101 l38 -6 -4 -1481 c-3 -1469 -3 -1483 -25 -1637 -173 -1204 -689 -2020&#10;-1496 -2364 -267 -114 -612 -186 -893 -186 l-103 0 0 -805 0 -805 4620 0 4620&#10;0 -2 803 -3 802 -210 6 c-760 23 -1341 203 -1742 540 -275 231 -474 566 -578&#10;975 -70 270 -100 525 -115 948 -10 279 -14 2648 -5 2657 2 3 136 -12 297 -32&#10;1807 -231 3243 -369 4498 -434 923 -47 1390 -47 1915 1 2301 209 4690 1347&#10;6791 3236 297 266 893 877 892 913 0 6 -95 53 -211 106 -1173 532 -2675 1290&#10;-3600 1815 l-147 84 -178 -123 c-992 -690 -1843 -1148 -2777 -1497 -761 -284&#10;-1491 -448 -2275 -511 -210 -17 -1263 -23 -1587 -10 -935 39 -1661 116 -3323&#10;354 l-295 43 -3 7275 -2 7275 197 78 c1686 668 3341 1632 4835 2817 l153 120&#10;23 -28 c649 -803 2163 -2748 4107 -5278 2545 -3313 3183 -4141 4109 -5335&#10;3904 -5038 6502 -8198 8330 -10135 237 -251 866 -880 1046 -1045 174 -160 488&#10;-437 755 -666 3006 -2575 5942 -4293 8823 -5165 2066 -625 4077 -798 6007&#10;-518 1103 160 2193 479 3215 941 156 71 635 308 676 334 22 15 20 19 -228 357&#10;-138 188 -320 435 -405 548 l-153 207 -118 -45 c-1581 -604 -3197 -742 -4822&#10;-412 -2763 562 -5606 2495 -8815 5994 -1338 1460 -2729 3165 -4460 5470 -835&#10;1112 -1440 1938 -3035 4140 -2022 2792 -2858 3927 -3824 5190 -2319 3034&#10;-4230 5210 -6056 6896 -540 497 -1186 1043 -1702 1437 -81 62 -149 116 -152&#10;120 -2 4 138 144 312 312 3288 3156 9650 9524 15877 15890 910 931 898 918&#10;996 1040 317 396 808 901 1249 1285 883 767 1803 1284 2664 1495 279 68 578&#10;110 794 110 l112 0 0 783 c0 430 3 792 6 805 l6 22 -5181 0 -5181 0 0 -803 0&#10;-804 178 -6 c838 -29 1418 -379 1631 -982 68 -191 93 -350 92 -590 0 -431&#10;-137 -891 -368 -1240 -84 -126 -68 -110 -1933 -1942 -811 -796 -2501 -2456&#10;-3755 -3688 -3112 -3058 -4773 -4688 -6595 -6475 -3120 -3060 -3641 -3570&#10;-3650 -3570 -4 0 -102 41 -217 91 -1309 573 -2854 1054 -4473 1394 -286 60&#10;-806 159 -985 188 l-80 13 0 6944 c0 5664 2 6967 13 7065 100 916 401 1639&#10;882 2124 411 414 960 643 1600 670 l155 6 3 803 2 802 -4620 0 -4620 0 0 -804&#10;0 -803 158 -6 c719 -27 1315 -349 1729 -932 336 -475 559 -1153 623 -1890 6&#10;-81 10 -2330 10 -6843 l0 -6723 -347 8 c-766 17 -1997 5 -2356 -23 l-77 -7 3&#10;9514 c2 7296 6 9542 15 9634 34 340 71 566 127 783 250 953 876 1537 1894&#10;1767 254 58 519 90 871 106 135 7 246 12 246 13 1 0 4 477 7 1059 l6 1057&#10;-6099 0 -6100 0 0 -1059z m10540 -25251 c431 -10 663 -19 1063 -42 l207 -11 0&#10;-2968 0 -2967 -22 -5 c-46 -12 -438 -66 -613 -86 -522 -58 -807 -71 -1620 -71&#10;-3152 0 -5235 224 -6504 700 -518 195 -870 405 -1151 689 -343 346 -488 723&#10;-466 1208 38 853 435 1535 1219 2095 114 81 413 268 430 268 4 0 8 -797 9&#10;-1771 l3 -1772 150 -59 c1108 -437 2417 -637 4690 -718 308 -11 968 -30 1048&#10;-30 l47 0 0 2770 0 2770 228 3 c567 7 878 6 1282 -3z m5547 -780 c1121 -336&#10;2088 -784 2847 -1320 l135 -95 -22 -24 c-38 -41 -375 -339 -562 -498 -709&#10;-598 -1393 -1094 -2124 -1537 -228 -138 -468 -276 -482 -276 -5 0 -9 726 -9&#10;1905 0 1159 4 1905 9 1905 5 0 99 -27 208 -60z m3031 -1430 c-3 -19 -5 -20&#10;-23 -6 -20 14 -20 14 0 36 17 19 21 20 23 6 2 -9 2 -25 0 -36z"/>
</g>
</svg>