<svg viewBox="0 0 490 485" version="1.1" xmlns="http://www.w3.org/2000/svg"><path fill="#fefae0"  stroke="none" opacity="1" d="M 47 27 L 104.5 27 L 105 27.5 L 105 33 L 90.5 33 L 87 35.5 L 86 37.5 L 86 215 L 103.5 214 L 104.5 215 L 111 215 L 111 63.5 L 111.5 63 L 132 63 L 132 215.5 L 131 217.5 L 134.5 220 L 146.5 223 L 164.5 233 L 341 69.5 L 339.5 66 L 331 66 L 331 63 L 368.5 63 L 369 67 L 353.5 67 L 350.5 69 L 182.5 225 L 170 235 Q 168.9 237.7 171.5 237 L 202.5 261 L 246 304.5 L 275 335.5 L 298 363.5 L 339.5 405 L 360.5 422 L 395.5 440 L 417.5 446 L 447.5 446 L 453 445 L 453 453 L 441.5 453 L 440.5 454 L 409.5 454 L 393.5 451 L 376.5 445 L 341.5 426 Q 299.1 394.9 264 356.5 L 192 268.5 L 174.5 251 L 163.5 242 L 132 270.5 L 131 281.5 L 132 282.5 L 132 306.5 L 131 307.5 L 131 387 L 156.5 387 L 167.5 389 L 181.5 394 L 205.5 407 L 216.5 411 L 232.5 414 L 256 414 L 256 428 L 229.5 428 L 203.5 422 L 166.5 404 L 152.5 401 L 131 401 L 131 441 L 111 441 L 111 402.5 L 109.5 402 L 108.5 403 L 81.5 406 L 55 411 L 55 395.5 L 57.5 395 L 66 393 L 66 285.5 L 67.5 285 L 71.5 287 L 80.5 288 L 86 286 L 86 390.5 Q 86.1 391.6 91.5 391 L 92.5 390 L 111 389 L 111 279.5 L 107.5 279 L 106.5 280 L 82.5 280 L 59.5 274 Q 46.9 269.6 40 259.5 Q 35.3 254.7 37 243.5 Q 40.1 232.6 48.5 227 L 56 224 L 56 232.5 L 53.5 235 L 45 242.5 L 45 250.5 L 52.5 261 Q 62.1 268.4 75.5 272 L 80.5 273 L 101.5 273 L 111 271 L 111 222 L 89.5 222 L 86 223 L 86 262.5 L 83.5 263 L 74.5 261 L 66 255.5 L 67 40.5 L 63.5 34 L 61.5 33 L 47 33 L 47 27 Z M 131 226 L 131 262 L 146 251 L 158 239 L 158 237 Q 147 229 131 226 Z "/></svg>